<?xml version="1.0" encoding="UTF-8" standalone="no" ?>
<!DOCTYPE svg PUBLIC "-//W3C//DTD SVG 1.1//EN" "http://www.w3.org/Graphics/SVG/1.1/DTD/svg11.dtd">
<svg xmlns="http://www.w3.org/2000/svg" xmlns:xlink="http://www.w3.org/1999/xlink" version="1.1" width="640" height="480" viewBox="0 0 640 480" xml:space="preserve">
<desc>Created with Fabric.js 3.6.6</desc>
<defs>
</defs>
<g transform="matrix(11.68 0 0 11.68 1006.2 240.3)"  >
<g style=""   >
		<g transform="matrix(1 0 0 1 -58.73 0)"  >
<path style="stroke: none; stroke-width: 1; stroke-dasharray: none; stroke-linecap: butt; stroke-dashoffset: 0; stroke-linejoin: miter; stroke-miterlimit: 4; fill: rgb(101,179,174); fill-rule: nonzero; opacity: 1;"  transform=" translate(-20.27, -20)" d="M 20.2662 40 L 20.2689 33.1936 C 19.5695 33.1936 18.8648 33.1389 18.1749 33.0308 L 17.0982 39.7544 C 18.1425 39.9173 19.2084 40 20.2675 40 H 20.2662 Z M 23.4342 39.7571 C 24.4812 39.5943 25.5214 39.3501 26.5278 39.0284 L 24.4041 32.5531 C 23.7413 32.7652 23.0541 32.9267 22.3629 33.0335 L 23.4342 39.7571 Z M 14.0032 39.0244 L 16.1324 32.5504 C 15.4682 32.3382 14.8175 32.0713 14.1966 31.759 L 11.0611 37.822 C 12.0039 38.2971 12.9941 38.7015 14.0032 39.0244 Z M 29.4686 37.83 C 30.4128 37.3562 31.3258 36.8037 32.1834 36.1884 L 28.124 30.6846 C 27.5599 31.0904 26.9593 31.4534 26.3384 31.7643 L 29.4686 37.83 Z M 8.34759 36.1778 L 12.4111 30.6766 C 11.8497 30.2736 11.3141 29.8198 10.8163 29.33 L 5.93438 34.1399 L 5.93844 34.1439 C 6.68784 34.8832 7.4981 35.5679 8.34759 36.1778 Z M 34.5642 34.1852 L 34.6061 34.1425 C 35.3528 33.4058 36.0454 32.6078 36.6649 31.771 L 31.0904 27.7606 C 30.6819 28.3131 30.2234 28.8416 29.7283 29.3314 L 29.6593 29.4008 L 32.0049 31.5855 L 34.5642 34.1852 Z M 3.87017 31.7576 L 9.44733 27.7512 C 9.03611 27.1947 8.66818 26.6022 8.35165 25.9896 L 2.20501 29.0791 C 2.68521 30.0093 3.24523 30.9102 3.87017 31.7563 V 31.7576 Z M 38.3328 29.0925 C 38.8143 28.1623 39.2242 27.1854 39.5529 26.1898 L 32.991 24.0878 C 32.7759 24.7431 32.5054 25.385 32.1888 25.9976 L 38.3328 29.0925 Z M 0.988931 26.1751 L 7.55221 24.0785 C 7.33713 23.4245 7.17345 22.7466 7.06389 22.0646 L 0.249007 23.1243 C 0.414036 24.1572 0.662932 25.1835 0.988931 26.1764 V 26.1751 Z M 40.2942 23.1389 C 40.4592 22.1086 40.5431 21.057 40.5444 20.0133 L 33.6457 20.0093 C 33.6457 20.6993 33.5902 21.3946 33.4807 22.0766 L 40.2942 23.1389 Z M 6.90021 19.9987 C 6.90021 19.3087 6.95567 18.612 7.06389 17.9314 L 0.249007 16.8717 C 0.0839781 17.902 0.00146417 18.9537 0.000111478 19.9973 H 6.89886 L 6.90021 19.9987 Z M 33.4834 17.9421 L 40.2982 16.8864 C 40.1346 15.8535 39.8857 14.8272 39.561 13.8342 L 32.9964 15.9269 C 33.2115 16.5821 33.3752 17.2588 33.4834 17.9407 V 17.9421 Z M 7.55221 15.9189 C 7.76729 15.2636 8.03783 14.6203 8.353 14.0077 L 2.20636 10.9169 C 1.72615 11.8471 1.31628 12.824 0.988931 13.8196 L 7.55085 15.9189 H 7.55221 Z M 32.197 14.0171 L 38.3463 10.9315 C 37.8661 10 37.3061 9.09916 36.6825 8.25304 L 31.1026 12.2568 C 31.5125 12.8133 31.8804 13.4058 32.197 14.0184 V 14.0171 Z M 9.45004 12.2461 C 9.85991 11.6909 10.3198 11.1597 10.8176 10.67 L 10.8311 10.6566 L 5.95332 5.84412 L 5.93979 5.85747 C 5.1904 6.59682 4.49512 7.39891 3.87423 8.23836 L 9.45004 12.2461 Z M 29.7526 10.694 L 31.2257 9.21126 L 34.6169 5.86681 L 34.6061 5.85613 C 33.8608 5.12078 33.0532 4.43881 32.2064 3.82891 L 28.1402 9.32737 C 28.7002 9.73042 29.2346 10.1815 29.7283 10.67 L 29.7526 10.694 V 10.694 Z M 12.4273 9.31269 C 12.9914 8.90831 13.592 8.54531 14.2129 8.23435 L 11.0868 2.16736 C 10.1426 2.64113 9.22955 3.19231 8.37194 3.80755 L 12.4273 9.31269 Z M 26.356 8.24503 L 29.4956 2.18471 C 28.5528 1.7096 27.564 1.30388 26.5549 0.980916 L 24.4217 7.45362 C 25.0858 7.66716 25.7365 7.93274 26.3574 8.24636 L 26.356 8.24503 Z M 16.1499 7.44562 C 16.8141 7.23475 17.5013 7.07327 18.1912 6.9665 L 17.1239 0.241559 C 16.0782 0.403043 15.0367 0.647271 14.0303 0.968904 L 16.1499 7.44562 V 7.44562 Z M 22.3804 6.97051 L 23.4599 0.246897 C 22.4156 0.0840785 21.3497 0 20.2919 0 L 20.2851 6.80635 C 20.9845 6.80635 21.6892 6.86241 22.3804 6.97051 V 6.97051 Z" stroke-linecap="round" />
</g>
		<g transform="matrix(1 0 0 1 -58.73 0.12)"  >
<path style="stroke: none; stroke-width: 1; stroke-dasharray: none; stroke-linecap: butt; stroke-dashoffset: 0; stroke-linejoin: miter; stroke-miterlimit: 4; fill: rgb(101,179,174); fill-rule: nonzero; opacity: 1;"  transform=" translate(-20.27, -20.12)" d="M 20.2702 33.494 V 26.6533 C 19.6875 26.6533 19.1061 26.5782 18.5439 26.432 L 16.7437 33.0406 C 17.8928 33.3411 19.0788 33.494 20.2702 33.494 Z M 23.7968 33.0406 C 24.9499 32.7388 26.0593 32.2895 27.0908 31.7047 L 23.5998 25.7815 C 23.0977 26.0658 22.5588 26.2844 21.9979 26.4306 L 23.7968 33.0406 Z M 13.4483 31.7033 L 16.9407 25.7815 C 16.44 25.4971 15.9763 25.147 15.5604 24.7406 L 15.4961 24.6789 L 13.2924 26.9538 L 10.588 29.5385 L 10.6276 29.576 C 11.473 30.4049 12.4224 31.1199 13.4497 31.7033 H 13.4483 Z M 29.9128 29.5787 H 29.9142 C 30.7582 28.7484 31.4873 27.8189 32.081 26.8129 L 26.0429 23.3872 C 25.7529 23.8781 25.3959 24.3328 24.9814 24.7393 L 29.9128 29.5787 Z M 8.45126 26.7982 L 14.4948 23.3805 C 14.2048 22.8883 13.9832 22.3598 13.8341 21.8085 L 7.09153 23.567 C 7.39794 24.6977 7.8562 25.7855 8.45126 26.7982 Z M 33.4462 23.5844 C 33.7526 22.4577 33.9085 21.2948 33.9099 20.1265 L 26.9334 20.1238 C 26.9334 20.6966 26.8568 21.2666 26.7064 21.8179 L 33.4462 23.5844 V 23.5844 Z M 13.6097 20.1158 C 13.6097 19.543 13.6863 18.973 13.8382 18.4217 L 7.09974 16.6512 C 6.79195 17.7779 6.63464 18.9408 6.63464 20.1091 L 13.6111 20.1158 H 13.6097 Z M 26.7077 18.4298 L 33.4489 16.6686 C 33.1411 15.5379 32.6829 14.4501 32.0878 13.4388 L 26.0456 16.8591 C 26.3357 17.3513 26.5586 17.8798 26.7077 18.4298 Z M 14.5016 16.851 C 14.7875 16.3668 15.1405 15.9175 15.5481 15.5151 L 15.5659 15.4977 L 13.0708 13.0511 L 10.6714 10.6247 L 10.6276 10.6663 C 9.78499 11.4925 9.05725 12.4194 8.46494 13.4227 L 14.5016 16.851 V 16.851 Z M 13.0708 13.0498 L 13.0995 13.0779 L 13.0708 13.0498 Z M 24.9855 15.5057 L 27.456 13.0833 L 29.9771 10.728 L 29.9142 10.6649 C 29.0715 9.83869 28.1235 9.12377 27.099 8.54165 L 23.6039 14.4622 C 24.0977 14.7425 24.5573 15.0886 24.9677 15.4883 L 24.9855 15.5057 V 15.5057 Z M 16.9448 14.4581 C 17.4454 14.1738 17.9844 13.9565 18.5466 13.809 L 16.7519 7.199 C 15.5974 7.50079 14.4893 7.94879 13.4565 8.5336 L 16.9448 14.4581 Z M 22.002 13.8116 L 23.8063 7.20302 C 22.6573 6.90123 21.4713 6.74832 20.2798 6.74698 L 20.2757 13.5876 C 20.8598 13.5876 21.4412 13.6628 22.0034 13.8103 L 22.002 13.8116 Z" stroke-linecap="round" />
</g>
		<g transform="matrix(1 0 0 1 27.76 -0.11)"  >
<path style="stroke: none; stroke-width: 1; stroke-dasharray: none; stroke-linecap: butt; stroke-dashoffset: 0; stroke-linejoin: miter; stroke-miterlimit: 4; fill: rgb(101,179,174); fill-rule: evenodd; opacity: 1;"  transform=" translate(-106.77, -19.89)" d="M 78.025 13.494 V 26.2878 H 75.1979 V 16.2663 H 74.3845 L 69.8699 26.2878 H 66.779 L 72.5431 13.494 L 72.5431 13.494 L 75.1979 13.494 H 78.025 Z M 61.0149 13.494 L 66.779 26.2878 H 63.6885 L 59.1735 16.2663 H 58.3605 V 26.2878 H 55.5334 V 16.2663 V 13.494 V 13.494 H 58.3605 V 13.494 H 61.0148 L 61.0149 13.494 Z M 110.358 26.2878 H 113.186 V 13.494 H 110.358 V 26.2878 Z M 85.9497 19.3467 L 87.3374 16.2663 H 88.826 L 90.2138 19.3467 H 85.9497 Z M 82.8227 26.2878 L 84.7007 22.119 H 91.4628 L 93.341 26.2878 H 96.4314 L 90.6679 13.494 L 90.6678 13.494 L 85.4959 13.494 L 85.4958 13.494 V 13.4943 L 79.7318 26.2878 H 82.8227 Z M 100.892 16.2663 V 26.2878 H 98.0654 V 16.2663 V 13.494 H 100.892 L 104.594 13.494 V 13.4942 L 104.594 13.494 L 110.358 26.2878 H 107.267 L 102.752 16.2663 H 100.892 Z M 123.917 16.2663 V 26.2878 H 121.09 V 16.2663 H 114.756 V 13.494 L 121.09 13.494 H 123.917 L 130.252 13.494 V 16.2663 H 123.917 Z M 131.823 13.494 H 134.65 V 23.5154 H 143.603 V 26.2878 L 134.65 26.2878 H 131.823 V 13.494 Z M 148 21.0922 V 23.5154 H 158 V 26.2878 L 148 26.2878 H 145.173 V 21.0922 V 18.3199 V 16.2663 V 13.494 H 148 L 157.999 13.494 V 16.2663 H 148 V 18.3199 L 157.123 18.3199 V 21.0922 H 148 Z" stroke-linecap="round" />
</g>
</g>
</g>
</svg>